<svg width="56" height="56" viewBox="0 0 56 56" fill="none" xmlns="http://www.w3.org/2000/svg">
<path d="M49.9444 15.0722C48.7748 14.7637 47.3151 15.5019 46.9895 16.851L43.3228 31.764L39.9598 18.1125C39.9309 17.9548 39.8078 17.5177 39.7908 17.493C39.522 16.7616 39.0395 16.1309 38.4078 15.6853C37.7761 15.2398 37.0253 15.0007 36.256 15C34.6334 15 33.2403 16.0264 32.7185 17.4905C32.7143 17.502 32.6519 17.6923 32.6273 17.7781C32.624 17.7923 32.6173 17.8068 32.6142 17.8206L29.1962 31.7983C29.1962 31.7983 25.5681 17.0728 25.5642 17.0543L25.5523 17.0053C25.5523 17.0022 25.5478 17.0006 25.5469 16.9979C25.4117 16.4348 25.0959 15.9333 24.6493 15.5721C24.2026 15.2109 23.6504 15.0105 23.0793 15.0025C23.0738 15.0025 23.0693 15 23.0635 15H23.0556C23.0519 15 23.0486 15 23.0446 15C23.0407 15 23.0373 15 23.0337 15H19C19.7339 15.5063 20.1423 16.2445 20.3037 17.0978L21.0754 20.2226C21.0754 20.2226 25.4912 38.1309 25.4952 38.1445C25.7255 38.9665 26.2136 39.69 26.8855 40.2052C27.5574 40.7205 28.3765 40.9995 29.2187 41C30.9214 41 32.3275 39.8604 32.8462 38.3092C32.8462 38.3132 32.807 38.2879 32.8462 38.3092L36.2533 24.4519C36.2533 24.4519 39.5798 38.1494 39.6242 38.1612C40.0945 39.7941 41.5572 40.9994 43.3188 40.9994C44.2179 40.9988 45.0888 40.6808 45.7822 40.1001C46.4756 39.5193 46.9483 38.7119 47.1193 37.8163L51.9383 18.1424C52.2643 16.7933 51.2545 15.4168 49.9444 15.0722Z" fill="white"/>
<path d="M3 17.6128C3 19.1865 4.32033 20.2243 5.5068 20.2243H10.9776L10.9904 38.3632C10.9867 38.7081 11.0505 39.0503 11.1781 39.3701C11.3056 39.6898 11.4945 39.9807 11.7336 40.226C11.9728 40.4712 12.2575 40.6659 12.5713 40.7987C12.8851 40.9316 13.2218 41 13.5619 41C13.9019 41 14.2386 40.9316 14.5524 40.7987C14.8663 40.6659 15.151 40.4712 15.3901 40.226C15.6293 39.9807 15.8181 39.6898 15.9457 39.3701C16.0732 39.0503 16.137 38.7081 16.1333 38.3632L16.1205 20.2252H20L19.22 17.0499C19.22 17.0499 18.8068 14.9281 16.4375 15.0019C16.4375 15.0019 15.2009 15.0019 15.7427 15.0019H5.46269C4.27622 15.0013 3 16.1013 3 17.6128Z" fill="white"/>
</svg>
